<svg width="24" height="24" viewBox="0 0 24 24" fill="none" xmlns="http://www.w3.org/2000/svg">
<g id="Icon-huge/mic-voice">
<path id="Vector" d="M19 12C19.0018 12.7884 18.8401 13.5694 18.5243 14.2982C18.2083 15.0269 17.7443 15.689 17.1588 16.2465C16.5735 16.804 15.8783 17.246 15.1131 17.5468C14.3479 17.8477 13.5279 18.0017 12.7 18H11.3C10.4722 18.0017 9.65211 17.8477 8.88693 17.5468C8.12175 17.246 7.42651 16.804 6.84113 16.2465C6.25574 15.689 5.79177 15.0269 5.47582 14.2982C5.15987 13.5694 4.99817 12.7884 5.00002 12M12 19V21.7857M9 22H15M16 11.1765C16 12.1905 15.5786 13.1631 14.8284 13.8801C14.0783 14.5972 13.0609 15 12 15C10.9391 15 9.92171 14.5972 9.17157 13.8801C8.42142 13.1631 8 12.1905 8 11.1765V5.82353C8 4.80947 8.42142 3.83693 9.17157 3.11988C9.92171 2.40283 10.9391 2 12 2C13.0609 2 14.0783 2.40283 14.8284 3.11988C15.5786 3.83693 16 4.80947 16 5.82353V11.1765Z" stroke="#404B5A" stroke-width="1.5" stroke-linecap="round" stroke-linejoin="round"/>
</g>
</svg>
