<svg width="28" height="28" viewBox="0 0 28 28" fill="none" xmlns="http://www.w3.org/2000/svg">
<g id="btn" clip-path="url(#clip0_1_642)">
<path id="Union" fill-rule="evenodd" clip-rule="evenodd" d="M2.54545 14C2.54545 7.67383 7.67383 2.54545 14 2.54545C20.3262 2.54545 25.4545 7.67383 25.4545 14C25.4545 20.3262 20.3262 25.4545 14 25.4545C7.67383 25.4545 2.54545 20.3262 2.54545 14ZM14 0C6.26801 0 0 6.26801 0 14C0 21.732 6.26801 28 14 28C21.732 28 28 21.732 28 14C28 6.26801 21.732 0 14 0ZM10.2443 16.7712C9.84183 16.268 9.10766 16.1865 8.60452 16.589C8.10138 16.9915 8.01981 17.7257 8.42232 18.2288C11.2227 21.7293 16.7773 21.7293 19.5777 18.2288C19.9802 17.7257 19.8986 16.9915 19.3955 16.589C18.8923 16.1865 18.1582 16.268 17.7557 16.7712C15.8894 19.104 12.1106 19.104 10.2443 16.7712ZM9.33332 10.5C9.33332 9.85566 9.85566 9.33332 10.5 9.33332H10.5117C11.156 9.33332 11.6783 9.85566 11.6783 10.5C11.6783 11.1443 11.156 11.6667 10.5117 11.6667H10.5C9.85566 11.6667 9.33332 11.1443 9.33332 10.5ZM17.5 9.33332C16.8557 9.33332 16.3333 9.85566 16.3333 10.5C16.3333 11.1443 16.8557 11.6667 17.5 11.6667H17.5117C18.156 11.6667 18.6783 11.1443 18.6783 10.5C18.6783 9.85566 18.156 9.33332 17.5117 9.33332H17.5Z" fill="#929FB1"/>
</g>
<defs>
<clipPath id="clip0_1_642">
<rect width="28" height="28" fill="white"/>
</clipPath>
</defs>
</svg>
